<svg xmlns="http://www.w3.org/2000/svg" width="26.1" height="26.166" viewBox="0 0 26.1 26.166"><defs><style>.a{fill:#fff;}</style></defs><g transform="translate(-0.121)"><g transform="translate(0.121)"><path class="a" d="M10.8,36.537l10.789-6.23a.547.547,0,0,0,0-.947L10.8,23.129a.547.547,0,0,0-.821.474v2.9H.668a.547.547,0,0,0-.547.547v5.564a.547.547,0,0,0,.547.547H9.982v2.9a.548.548,0,0,0,.82.475Z" transform="translate(-0.121 -16.75)"/><path class="a" d="M49.718,0H38.573a.547.547,0,0,0-.547.547V2.188a.547.547,0,0,0,.547.547H49.718a1.306,1.306,0,0,1,1.3,1.3V22.126a1.306,1.306,0,0,1-1.3,1.3H38.573a.547.547,0,0,0-.547.547v1.641a.547.547,0,0,0,.547.547H49.718a4.045,4.045,0,0,0,4.04-4.04V4.04A4.045,4.045,0,0,0,49.718,0Z" transform="translate(-27.659)"/></g></g></svg>